<svg width="32" height="32" viewBox="0 0 32 32" fill="none" xmlns="http://www.w3.org/2000/svg">
<g id="infinity-svgrepo-com">
<g id="Vivid.JS">
<g id="Vivid-Icons">
<g id="Icons">
<g id="infinity">
<g id="Shape">
<path id="Vector" fill-rule="evenodd" clip-rule="evenodd" d="M24.3805 23.9997C22.0021 24.0024 19.7591 22.8934 18.3173 21.0018L13.7161 16.4207L18.3215 11.8397C20.4677 8.97952 24.3174 8.00252 27.5677 9.49316C30.818 10.9838 32.5893 14.5388 31.822 18.0312C31.0546 21.5237 27.9563 24.0088 24.3805 23.9997ZM24.2963 11.8734C22.8496 11.8683 21.4819 12.5323 20.591 13.6721L17.7784 16.4207L20.5927 19.1694C21.4835 20.3093 22.8513 20.9733 24.298 20.9681C25.9226 20.9678 27.4236 20.1008 28.2357 18.6937C29.0477 17.2866 29.0474 15.5531 28.2348 14.1463C27.4223 12.7395 25.9209 11.8731 24.2963 11.8734Z" fill="#008148"/>
<path id="Vector_2" fill-rule="evenodd" clip-rule="evenodd" d="M13.6782 21.0013C11.7111 23.5939 8.30835 24.6413 5.22379 23.6036C2.13923 22.5658 0.0615234 19.6747 0.0615234 16.4202C0.0615234 13.1658 2.13923 10.2747 5.22379 9.23692C8.30835 8.19919 11.7111 9.24655 13.6782 11.8392L18.2837 16.4202L13.6782 21.0013ZM11.4045 13.675C10.5137 12.5352 9.14592 11.8712 7.69927 11.8762C5.18783 11.8762 3.1519 13.9122 3.1519 16.4236C3.1519 18.9351 5.18783 20.971 7.69927 20.971C9.14595 20.9761 10.5137 20.3121 11.4045 19.1722L14.2214 16.4202L11.4045 13.675Z" fill="#FF6E6E"/>
</g>
</g>
</g>
</g>
</g>
</g>
</svg>
